<svg xmlns="http://www.w3.org/2000/svg" viewBox="0 0 512 512" width="512" height="512">
  <defs>
<radialGradient id="band" cx="0.5" cy="0.5" r="0.5">
      <stop offset="0.4" stop-color="#ffd76b" stop-opacity="0"/><stop offset="0.72" stop-color="#ffcf5e" stop-opacity="0.85"/><stop offset="0.86" stop-color="#ffe9b3" stop-opacity="0.7"/><stop offset="1" stop-color="#ffd76b" stop-opacity="0"/>
    </radialGradient>
    <linearGradient id="ray" x1="0" y1="0" x2="0" y2="1">
      <stop offset="0" stop-color="#fff3c4" stop-opacity="0.9"/><stop offset="1" stop-color="#ffb84d" stop-opacity="0.12"/>
    </linearGradient>
    <filter id="gl" x="-300%" y="-300%" width="700%" height="700%"><feGaussianBlur stdDeviation="2" result="b"/><feMerge><feMergeNode in="b"/><feMergeNode in="SourceGraphic"/></feMerge></filter>
    <filter id="gl6" x="-60%" y="-60%" width="220%" height="220%"><feGaussianBlur stdDeviation="6" result="b"/><feMerge><feMergeNode in="b"/><feMergeNode in="SourceGraphic"/></feMerge></filter>
  </defs>
  <circle cx="256" cy="256" r="232" fill="#000" opacity="0" />
<circle cx="256" cy="256" r="250" fill="url(#band)"/><polygon points="505.93,249.89 548,256 505.93,262.11" fill="url(#ray)" opacity="0.9"/>,<polygon points="503.8,289.06 544.4,301.68 501.89,301.13" fill="url(#ray)" opacity="0.55"/>,<polygon points="495.58,327.42 533.71,346.23 491.81,339.04" fill="url(#ray)" opacity="0.55"/>,<polygon points="481.46,364.02 516.17,388.57 475.91,374.91" fill="url(#ray)" opacity="0.55"/>,<polygon points="461.78,397.96 492.23,427.63 454.6,407.84" fill="url(#ray)" opacity="0.9"/>,<polygon points="437.04,428.4 462.48,462.48 428.4,437.04" fill="url(#ray)" opacity="0.55"/>,<polygon points="407.84,454.6 427.63,492.23 397.96,461.78" fill="url(#ray)" opacity="0.55"/>,<polygon points="374.91,475.91 388.57,516.17 364.02,481.46" fill="url(#ray)" opacity="0.55"/>,<polygon points="339.04,491.81 346.23,533.71 327.42,495.58" fill="url(#ray)" opacity="0.9"/>,<polygon points="301.13,501.89 301.68,544.4 289.06,503.8" fill="url(#ray)" opacity="0.55"/>,<polygon points="262.11,505.93 256,548 249.89,505.93" fill="url(#ray)" opacity="0.55"/>,<polygon points="222.94,503.8 210.32,544.4 210.87,501.89" fill="url(#ray)" opacity="0.55"/>,<polygon points="184.58,495.58 165.77,533.71 172.96,491.81" fill="url(#ray)" opacity="0.9"/>,<polygon points="147.98,481.46 123.43,516.17 137.09,475.91" fill="url(#ray)" opacity="0.55"/>,<polygon points="114.04,461.78 84.37,492.23 104.16,454.6" fill="url(#ray)" opacity="0.55"/>,<polygon points="83.6,437.04 49.52,462.48 74.96,428.4" fill="url(#ray)" opacity="0.55"/>,<polygon points="57.4,407.84 19.77,427.63 50.22,397.96" fill="url(#ray)" opacity="0.9"/>,<polygon points="36.09,374.91 -4.17,388.57 30.54,364.02" fill="url(#ray)" opacity="0.55"/>,<polygon points="20.19,339.04 -21.71,346.23 16.42,327.42" fill="url(#ray)" opacity="0.55"/>,<polygon points="10.11,301.13 -32.4,301.68 8.2,289.06" fill="url(#ray)" opacity="0.55"/>,<polygon points="6.07,262.11 -36,256 6.07,249.89" fill="url(#ray)" opacity="0.9"/>,<polygon points="8.2,222.94 -32.4,210.32 10.11,210.87" fill="url(#ray)" opacity="0.55"/>,<polygon points="16.42,184.58 -21.71,165.77 20.19,172.96" fill="url(#ray)" opacity="0.55"/>,<polygon points="30.54,147.98 -4.17,123.43 36.09,137.09" fill="url(#ray)" opacity="0.55"/>,<polygon points="50.22,114.04 19.77,84.37 57.4,104.16" fill="url(#ray)" opacity="0.9"/>,<polygon points="74.96,83.6 49.52,49.52 83.6,74.96" fill="url(#ray)" opacity="0.55"/>,<polygon points="104.16,57.4 84.37,19.77 114.04,50.22" fill="url(#ray)" opacity="0.55"/>,<polygon points="137.09,36.09 123.43,-4.17 147.98,30.54" fill="url(#ray)" opacity="0.55"/>,<polygon points="172.96,20.19 165.77,-21.71 184.58,16.42" fill="url(#ray)" opacity="0.9"/>,<polygon points="210.87,10.11 210.32,-32.4 222.94,8.2" fill="url(#ray)" opacity="0.55"/>,<polygon points="249.89,6.07 256,-36 262.11,6.07" fill="url(#ray)" opacity="0.55"/>,<polygon points="289.06,8.2 301.68,-32.4 301.13,10.11" fill="url(#ray)" opacity="0.55"/>,<polygon points="327.42,16.42 346.23,-21.71 339.04,20.19" fill="url(#ray)" opacity="0.9"/>,<polygon points="364.02,30.54 388.57,-4.17 374.91,36.09" fill="url(#ray)" opacity="0.55"/>,<polygon points="397.96,50.22 427.63,19.77 407.84,57.4" fill="url(#ray)" opacity="0.55"/>,<polygon points="428.4,74.96 462.48,49.52 437.04,83.6" fill="url(#ray)" opacity="0.55"/>,<polygon points="454.6,104.16 492.23,84.37 461.78,114.04" fill="url(#ray)" opacity="0.9"/>,<polygon points="475.91,137.09 516.17,123.43 481.46,147.98" fill="url(#ray)" opacity="0.55"/>,<polygon points="491.81,172.96 533.71,165.77 495.58,184.58" fill="url(#ray)" opacity="0.55"/>,<polygon points="501.89,210.87 544.4,210.32 503.8,222.94" fill="url(#ray)" opacity="0.55"/>
<circle cx="256" cy="256" r="248" fill="none" stroke="#ffe9b3" stroke-width="1.5" opacity="0.8"/>
<circle cx="256" cy="256" r="214" fill="none" stroke="#ffd76b" stroke-width="2.5" opacity="0.9"/>
<circle cx="256" cy="256" r="210" fill="none" stroke="#fff3c4" stroke-width="1" opacity="0.6"/><circle cx="518.73" cy="326.4" r="2.4" fill="#ffe08a" opacity="0.85" filter="url(#gl)"/><circle cx="256" cy="534" r="2.4" fill="#ffe08a" opacity="0.85" filter="url(#gl)"/><circle cx="-6.73" cy="326.4" r="2.4" fill="#ffe08a" opacity="0.85" filter="url(#gl)"/><circle cx="117" cy="15.24" r="2.4" fill="#ffe08a" opacity="0.85" filter="url(#gl)"/><circle cx="448.33" cy="63.67" r="2.4" fill="#ffe08a" opacity="0.85" filter="url(#gl)"/>
<circle cx="256" cy="256" r="286" fill="none" stroke="#ffd76b" stroke-width="1" opacity="0.14" filter="url(#gl6)"/>
</svg>
